<svg id="Grupo_17" data-name="Grupo 17" xmlns="http://www.w3.org/2000/svg" xmlns:xlink="http://www.w3.org/1999/xlink" width="34.107" height="34.108" viewBox="0 0 34.107 34.108">
  <defs>
    <clipPath id="clip-path">
      <rect id="Rectángulo_30" data-name="Rectángulo 30" width="34.107" height="34.108" fill="#812c27"/>
    </clipPath>
  </defs>
  <g id="Grupo_16" data-name="Grupo 16" clip-path="url(#clip-path)">
    <path id="Trazado_77" data-name="Trazado 77" d="M0,23.5V10.6H.468l3.407,0c.277,0,.278,0,.278-.288,0-1.956,0-3.913-.006-5.869,0-.217.049-.289.278-.288,1.978.011,3.957.005,5.935.015.215,0,.243-.066.242-.266-.011-1.267,0-2.535,0-3.8A.486.486,0,0,1,10.62,0H23.443a1.019,1.019,0,0,1,.022.148c0,1.253.014,2.506.007,3.759,0,.2.052.248.243.247,1.436-.006,2.872,0,4.308,0,.564,0,1.128.011,1.693,0,.181,0,.219.062.219.23-.005,2.008,0,4.015-.007,6.023,0,.171.055.2.216.2,1.282,0,2.564,0,3.846.005a.84.84,0,0,1,.114.02v.235q0,6.177,0,12.354c0,.211-.056.275-.266.275-1.216-.006-2.433,0-3.649,0h-.255v.336q0,2.891,0,5.781c0,.325,0,.325-.319.325-1.964,0-3.927,0-5.891,0-.2,0-.258.046-.257.256.008,1.231-.005,2.462,0,3.693,0,.151-.022.222-.2.222Q17,34.1,10.738,34.1c-.036,0-.071,0-.137-.008v-4.16h-.415c-1.927,0-3.854,0-5.781.008-.2,0-.259-.058-.258-.259.007-1.978,0-3.957.008-5.935,0-.2-.054-.257-.257-.256-1.224.009-2.447,0-3.671,0H0m17.028,0a6.456,6.456,0,1,0-6.43-6.415,6.435,6.435,0,0,0,6.43,6.415" transform="translate(0 -0.001)" fill="#812c27"/>
  </g>
</svg>
