<svg xmlns="http://www.w3.org/2000/svg" xmlns:xlink="http://www.w3.org/1999/xlink" width="131.593" height="131.854" viewBox="0 0 131.593 131.854">
  <defs>
    <clipPath id="clip-path">
      <rect id="Rectangle_36" data-name="Rectangle 36" width="131.593" height="131.854" fill="none"/>
    </clipPath>
  </defs>
  <g id="Group_32" data-name="Group 32" transform="translate(0 0)">
    <g id="Group_29" data-name="Group 29" transform="translate(0 0)" clip-path="url(#clip-path)">
      <path id="Path_89" data-name="Path 89" d="M131.591,41.851A41.607,41.607,0,0,1,97.355,82.784C93.273,83.477,89.131,83.9,85,84.2a9.949,9.949,0,0,0-6.979,3.315c-8.135,8.772-17.08,16.72-25.765,24.923A170.6,170.6,0,0,1,37.623,124.15a46.258,46.258,0,0,1-11.258,6.058c-5.695,2.209-11.311,2.346-16.89-.525-6.1-3.138-9.145-8.234-9.447-14.908-.327-7.222,2.146-13.668,6.524-19.312a113.125,113.125,0,0,1,8.541-9.794C23.5,77.081,32.316,68.913,41.235,60.862c1.563-1.41,3.016-2.938,4.553-4.376,1.857-1.73,3.681-3.508,5.652-5.1a2.5,2.5,0,0,0,.992-2.826A33.41,33.41,0,0,1,52.475,34a38.308,38.308,0,0,1,2.605-7.326C61.4,13.8,71.463,5.077,85.28,1.325c14.19-3.851,25.946.87,35.352,11.829a56.025,56.025,0,0,1,4.916,6.976,40.016,40.016,0,0,1,6.042,21.722m-5.847-1.484a32.574,32.574,0,0,0-4.883-17.63c-1.342-2.222-2.851-4.348-4.376-6.451a29.374,29.374,0,0,0-14.6-10.4c-6.608-2.3-13.2-1.616-19.629.845-10.784,4.127-18.63,11.534-23.86,21.76a18.854,18.854,0,0,0-1.527,3.97A37.02,37.02,0,0,0,56,48.652a4.767,4.767,0,0,1-1.9,5.068,25.979,25.979,0,0,0-2.3,2.156c-2.945,2.92-5.842,5.893-8.828,8.769C34.5,72.812,25.934,80.874,17.542,89.118a79.122,79.122,0,0,0-7.63,8.856C6.332,102.71,3.943,108.017,4.143,114.1A12.667,12.667,0,0,0,10.7,125.256a15.973,15.973,0,0,0,14.617,1.167,47.454,47.454,0,0,0,11.042-6.05,111.4,111.4,0,0,0,13.394-11.466Q62.087,96.293,74.37,83.626c.561-.576,1.142-1.134,1.735-1.679a10.806,10.806,0,0,1,6.3-2.887c2.156-.236,4.307-.495,6.461-.731a57.423,57.423,0,0,0,13.417-2.788c11.753-4.267,23.865-17.843,23.457-35.174" transform="translate(-0.001 -0.001)" fill="#54171a"/>
      <path id="Path_90" data-name="Path 90" d="M78.579,27.865c-.02,17.11-11.951,30.327-26.953,31.651C39,60.629,28.839,52.738,25.686,41.1c-4.163-15.375,7.9-32.922,23.9-35.352A25.517,25.517,0,0,1,65.327,7.934C74.262,12.472,78.3,20.082,78.579,27.865M74.7,30.288A23.628,23.628,0,0,0,73.4,22.819C70.145,13.55,61.162,8.337,53.052,9.058c-10.5.931-17.935,6.3-22.059,15.989A23.378,23.378,0,0,0,29.75,40.335a20.391,20.391,0,0,0,19.71,15.18c13.5.2,25.309-11.608,25.235-25.228" transform="translate(38.199 8.263)" fill="#54171a"/>
      <path id="Path_91" data-name="Path 91" d="M46.38,38.495a23,23,0,0,1-.959,4.127,59.5,59.5,0,0,1-3.305,6.408A18.189,18.189,0,0,1,39.7,52.084,99.769,99.769,0,0,1,18.679,69.651c-.738.454-1.5.87-2.268,1.271-3.6,1.89-6.674.974-9.272-2.387a8.513,8.513,0,0,1-1.1-8.625A27.611,27.611,0,0,1,13.147,49.6,152.809,152.809,0,0,1,27.154,38c1.684-1.258,3.326-2.58,4.949-3.917a13.032,13.032,0,0,1,5.956-2.856c4.315-.819,7.285,1.228,8.006,5.571.091.548.119,1.106.175,1.659l.14.041M29.793,56.457c3.95-3.747,8.036-7.169,10.928-11.707a23.1,23.1,0,0,0,1.844-3.836,5.93,5.93,0,0,0,.236-3.825c-.675-2.463-2.194-3.47-4.708-3.047a10.682,10.682,0,0,0-4.662,2.171c-2.121,1.6-4.269,3.168-6.39,4.774-1.669,1.261-3.31,2.56-4.9,3.795,2.56,3.9,5.028,7.669,7.656,11.674m-9.647-9.939c-3.539,3.458-7.252,6.748-9.591,11.189a17.188,17.188,0,0,0-1.471,4.551,7.779,7.779,0,0,0,.1,3.115c.786,3.612,3.1,4.591,6.281,2.724a53.869,53.869,0,0,0,10.812-8.384,5.335,5.335,0,0,0,.528-.68c-2.23-4.193-4.373-8.216-6.661-12.516" transform="translate(8.23 47.71)" fill="#54171a"/>
      <path id="Path_92" data-name="Path 92" d="M33.636,30.8c-.015,1.892-2.052,3.572-4.285,3.531a3.142,3.142,0,0,1-3.247-3.3,3.684,3.684,0,0,1,3.739-3.6c2.354-.023,3.81,1.268,3.792,3.369" transform="translate(40.114 42.158)" fill="#54171a"/>
      <path id="Path_93" data-name="Path 93" d="M26.341,24.186a3.008,3.008,0,0,1,2.747,1.689,2.8,2.8,0,0,1-.538,3.115A4.073,4.073,0,0,1,25.463,30.8a3.01,3.01,0,0,1-2.874-4.1,4.342,4.342,0,0,1,3.752-2.514" transform="translate(34.398 37.167)" fill="#54171a"/>
    </g>
  </g>
</svg>
