<svg height="127.018" viewBox="0 0 161.5 127.018" width="161.5" xmlns="http://www.w3.org/2000/svg" xmlns:xlink="http://www.w3.org/1999/xlink"><clipPath id="a"><path d="m0 0h161.5v127.017h-161.5z"/></clipPath><g clip-path="url(#a)" fill="#fff"><path d="m117.765 78.2c-1.421-.035-2.658-.073-3.9-.1-5.055-.108-10.107-.189-15.159-.328-6.083-.164-12.165-.451-18.25-.547a270.243 270.243 0 0 0 -32.706 1.764c-2.484.265-4.966.554-7.451.847-.7.081-1.388.2-2.222.328a12.945 12.945 0 0 0 -.1 1.449q.559 13.357 1.134 26.714c.171 4.18.335 8.36.433 12.543a22.4 22.4 0 0 1 -.285 3.734c-.275 1.9-1.094 2.512-3 2.4a42.613 42.613 0 0 1 -15.383-3.948 67.642 67.642 0 0 1 -14.635-9.693 12.307 12.307 0 0 1 -4.483-9.225c-.601-9.443-1.058-18.887-1.083-28.349-.017-9.945.096-19.889.025-29.839-.032-3.631-.511-7.259-.647-10.892a45.916 45.916 0 0 1 .176-6.992 13.588 13.588 0 0 1 4.389-8.179 45.68 45.68 0 0 1 18.282-10.987 190.575 190.575 0 0 1 35.437-7.877 168.825 168.825 0 0 1 24.263-.937 265.136 265.136 0 0 1 37.6 3.739 78.18 78.18 0 0 1 22.462 7.075 38.467 38.467 0 0 1 14.418 12.909 18.3 18.3 0 0 1 3.175 9.462c.194 3.417.446 6.831.7 10.243a206.287 206.287 0 0 1 .1 28.513q-.809 12.609-1.741 25.212a20.43 20.43 0 0 1 -3.623 10.669 14.232 14.232 0 0 1 -3.215 3.2 69.486 69.486 0 0 1 -20.337 10.137c-2.638.839-5.274 1.7-7.925 2.5-3.437 1.033-4.782-.559-4.863-3.737-.227-8.8-.655-17.6-.99-26.392-.174-4.508-.32-9.018-.484-13.526-.018-.537-.063-1.071-.113-1.887m-34.706-37.489c1.514-.915 2.837-1.655 4.1-2.487 2.588-1.706 5.13-3.477 7.713-5.188a12.683 12.683 0 0 1 4.785-1.978 10.511 10.511 0 0 0 2.55-1.005c.733-.353 1.4-.842 2.119-1.222a6.293 6.293 0 0 1 5.5-.375c.5.2 1.008.408 1.5.63a7.78 7.78 0 0 0 5.566.474c1.4-.428 2.729-1.058 4.084-1.613 1.605-.658 3.17-1.436 4.815-1.975a6.53 6.53 0 0 1 6.44 1.237 23.78 23.78 0 0 1 3.054 2.925c4.16 4.871 9.2 8.759 14.1 12.81a2.47 2.47 0 0 0 .549.224 19.212 19.212 0 0 0 3.636-3.394 8.593 8.593 0 0 0 2-5.231 12.6 12.6 0 0 0 -1.507-6.919 31.5 31.5 0 0 0 -11.082-11.707 56.083 56.083 0 0 0 -15.194-6.186 166.08 166.08 0 0 0 -22.015-3.664c-8.26-1-16.557-1.555-24.87-1.865a170.45 170.45 0 0 0 -22.967.718 163.005 163.005 0 0 0 -33.094 7.094 45.688 45.688 0 0 0 -16.824 9.7 14.064 14.064 0 0 0 -3.606 4.574 5.384 5.384 0 0 0 .925 6.478c1.465 1.531 2.945 3.057 4.55 4.431 3.868 3.313 8.565 5.087 13.231 6.9.723.28 1.129-.121 1.552-.552 1.983-2.013 4-3.994 5.926-6.06a36.927 36.927 0 0 1 7.587-6.38 5.646 5.646 0 0 1 6.579 0 13.5 13.5 0 0 0 2.618 1.3 2.655 2.655 0 0 0 2.89-.522c.685-.62 1.378-1.23 2.038-1.875a6.082 6.082 0 0 1 7.313-1.411 4.054 4.054 0 0 0 3.873-.244 24.19 24.19 0 0 1 4.019-1.756 6.661 6.661 0 0 1 7.07 1.683 19.162 19.162 0 0 1 2.424 2.847c1.451 2.164 2.789 4.407 4.175 6.617.572.912 1.149 1.819 1.877 2.971m34.543 33.826c0-.637.01-1.167 0-1.7-.043-1.794-.043-3.588-.156-5.377-.224-3.518.547-3.059-3.258-3.616a19.157 19.157 0 0 1 -8.048-2.913c-.723-.481-1.484-.907-2.195-1.409a32.776 32.776 0 0 0 -9.032-4.429 25.823 25.823 0 0 1 -9.726-5.8 40.756 40.756 0 0 1 -8.106-10.346 81.858 81.858 0 0 0 -4.5-7.365c-1.64-2.361-3.331-2.716-5.959-1.582-1.144.494-2.232 1.119-3.356 1.666a5.055 5.055 0 0 1 -3.959.257c-.36-.121-.726-.227-1.091-.33a2.886 2.886 0 0 0 -3.122.806 30.534 30.534 0 0 1 -2.707 2.594 5.593 5.593 0 0 1 -5.357 1.089 10.9 10.9 0 0 1 -4.228-2.369 2.482 2.482 0 0 0 -3.271-.275 11.137 11.137 0 0 0 -1.373.874q-2.918 2.472-5.788 5c-1.872 1.648-3.724 3.321-5.581 4.992-.224.2-.411.449-.738.811.864.312 1.56.585 2.268.819 2.217.733 4.447 1.431 6.657 2.187 2.033.7 2.57 1.393 2.482 3.465-.353 8.267.29 16.514.421 24.772a9.07 9.07 0 0 0 .159 1.111c26.321-5.3 52.761-5.082 79.566-2.933m-113.782-36.973c-.134.033-.267.063-.4.093 0 .63-.01 1.26 0 1.89.314 16.683.58 33.366.98 50.047.113 4.777.632 9.542.925 14.315a7.593 7.593 0 0 0 3.233 5.939c1.837 1.353 3.649 2.741 5.521 4.047a52.586 52.586 0 0 0 20.254 9c.721.139 1.434.315 2.225.491a7.38 7.38 0 0 0 .179-1.131c-.048-2.716.015-5.44-.2-8.144-.824-10.621-1.9-21.224-1.993-31.885-.071-8.749.008-17.5.018-26.248 0-1.4 0-2.794 0-4.226a7.963 7.963 0 0 0 -.857-.265 87.431 87.431 0 0 1 -15.638-4.493 33.549 33.549 0 0 1 -13.544-8.785c-.212-.234-.469-.431-.7-.645m152.832 6.2a3.239 3.239 0 0 0 -.6.229c-.287.247-.557.517-.839.771a34.167 34.167 0 0 1 -13.435 7.761 73.882 73.882 0 0 1 -15.685 2.852c-1.3.091-2.608.161-3.9.323-1.157.141-1.414.423-1.436 1.572s.038 2.283.123 3.419c.144 1.95.34 3.9.506 5.846.826 9.593 1.164 19.205 1.368 28.826.171 8.038.837 16.071.35 24.121a3.482 3.482 0 0 0 .184.819c.577-.139 1.053-.222 1.507-.368q4.422-1.421 8.837-2.87a63.322 63.322 0 0 0 16.978-8.885 9.579 9.579 0 0 0 2.7-3 14.477 14.477 0 0 0 1.794-6.71c.295-4.936.451-9.882.771-14.816.758-11.724.932-23.461.937-35.2 0-1.5-.1-3.006-.156-4.687m-9.552 1.327c-.174-.26-.214-.375-.295-.431a81.894 81.894 0 0 1 -14.841-13.159c-2.971-3.361-4.369-3.535-8.421-1.618-1.519.721-3.034 1.466-4.591 2.1a10.509 10.509 0 0 1 -7.025.456 15.976 15.976 0 0 1 -2.711-1.1 3.924 3.924 0 0 0 -4.032.149 17.941 17.941 0 0 1 -1.683.99c-1.028.476-2.079.9-3.135 1.31a31.972 31.972 0 0 0 -3.928 1.474c-4.037 2.215-7.673 5.128-11.966 6.773a1.116 1.116 0 0 0 0 .285 1.748 1.748 0 0 0 .214.428c3.369 4.14 7.2 7.7 12.253 9.709a31.058 31.058 0 0 1 7.456 4.3c1.507 1.157 3.064 2.253 4.644 3.308 2.427 1.618 5.2 1.96 8.219 2.225 0-.819-.028-1.459.005-2.1.063-1.245.081-2.5.26-3.732a4.265 4.265 0 0 1 3.73-3.967 19.387 19.387 0 0 1 2.255-.335 76.95 76.95 0 0 0 18.029-4.271 21.013 21.013 0 0 0 5.564-2.8"/><path d="m31.649 14.741c.164-6.451 4.82-9.263 9.837-9.081a4.812 4.812 0 0 1 4.248 2.593c3.124 5.71 1.111 11.379-4.593 13.219a7.283 7.283 0 0 1 -9.492-6.73m12.775-1.819a28.3 28.3 0 0 0 -.889-3.094 2.854 2.854 0 0 0 -3.591-1.7 7.173 7.173 0 0 0 -4.964 4.742 4.061 4.061 0 0 0 4.344 5.584 5.735 5.735 0 0 0 5.1-5.531" transform="translate(48.098 8.59)"/><path d="m41.88 7.942a16.947 16.947 0 0 1 2.076.464 1.628 1.628 0 0 1 1.152 1.613 1.775 1.775 0 0 1 -1.108 1.655 5.526 5.526 0 0 1 -4.818-.524 1.745 1.745 0 0 1 -.655-1.88 1.567 1.567 0 0 1 1.434-1.146c.534-.078 1.076-.1 1.923-.181" transform="translate(58.446 12.07)"/><path d="m31.2 4.086c1.61-.008 3.608 2.477 3.24 4.032a1.565 1.565 0 0 1 -2.031 1.1 4.712 4.712 0 0 1 -2.826-3.318 1.585 1.585 0 0 1 1.617-1.814" transform="translate(44.945 6.21)"/><path d="m28.227 9.341a1.958 1.958 0 0 1 1.608-2.079 3.525 3.525 0 0 1 2.875.766 1.938 1.938 0 0 1 .547 2.6 1.6 1.6 0 0 1 -2.127.94 6.365 6.365 0 0 1 -2.149-1.015 3.47 3.47 0 0 1 -.753-1.209" transform="translate(42.898 10.959)"/><path d="m34.05 2.8a4.266 4.266 0 0 1 .927.451 3.529 3.529 0 0 1 .249 5.08.856.856 0 0 1 -1.305-.031 5.642 5.642 0 0 1 -1.784-3.9c-.015-1.01.685-1.628 1.912-1.608" transform="translate(48.84 4.254)"/><path d="m42.493 5.463c1.361-.03 2.023.36 2.2 1.068a1.529 1.529 0 0 1 -.806 1.776 5.31 5.31 0 0 1 -3.558.771 1.621 1.621 0 0 1 -1.5-1.456c-.05-.809.529-1.162 1.139-1.386.952-.35 1.943-.6 2.527-.774" transform="translate(59.002 8.301)"/><path d="m42.281 4.89a4.361 4.361 0 0 1 -.3.794 5.872 5.872 0 0 1 -2.837 2.8 1.729 1.729 0 0 1 -1.461-.237 1.487 1.487 0 0 1 -.2-1.318 6.093 6.093 0 0 1 2.734-3.324 1.339 1.339 0 0 1 2.064 1.285" transform="translate(56.86 5.152)"/><path d="m35.093 5.44a9.318 9.318 0 0 1 .323-1.3 1.494 1.494 0 0 1 2.905.275 4.826 4.826 0 0 1 -.116 1.9 1.8 1.8 0 0 1 -1.905 1.41c-.816-.151-1.242-.859-1.2-2.285" transform="translate(53.329 4.718)"/></g></svg>