<?xml version="1.0" encoding="UTF-8"?><svg id="Capa_2" xmlns="http://www.w3.org/2000/svg" viewBox="0 0 263.3 245.35"><defs><style>.cls-1{fill:#fff;}</style></defs><g id="Capa_1-2"><path class="cls-1" d="m0,63.26h17.39v5.29H5.99v10.96h9.18v5.4H5.99v12.69h13.18v5.35H0v-39.69Z"/><path class="cls-1" d="m25.27,63.26h6.1v34.29h11.39v5.4h-17.5v-39.69Z"/><path class="cls-1" d="m64.35,86.03l1.72-.77.11-6.27.91-10.76,18.82,21-.22-4.54v-21.44h6.05v39.69h-.81l-23.22-25.7.16,4.32v21.38h-6.05v-22l2.52,5.08Z"/><path class="cls-1" d="m100.87,63.26h6.05v32.19l-6.05,1.5v-33.69Z"/><path class="cls-1" d="m139.91,74.32v-9.57l6.05-.64m-10.81,19.55l4.98,5.56-.22-4.54s5.18,2.33,6.05,3.38v14.87h-.81l-15.48-17.14s4.03-2.25,5.48-2.14Zm-7.73-.35l-5.49-6.08.16,4.32v4.07l-6.05,2.99v-25.42h.76l15.61,17.41m-.73-21.68c-.67-.32-1.36-.79-2.08-1.4-.68-.54-1.25-.93-1.7-1.16-.45-.23-1-.35-1.65-.35s-1.14.21-1.49.62c-.34.41-.78,1.23-1.32,2.46l-2.32-3.62c.29-1.22,1.01-2.29,2.16-3.19,1.15-.9,2.41-1.35,3.78-1.35,1.22,0,2.19.18,2.89.54.7.36,1.43.88,2.19,1.57.54.47.99.81,1.35,1.03.36.22.81.32,1.35.32,1.58,0,2.7-.83,3.35-2.48l2.05,3.13c-.18,1.3-.86,2.35-2.05,3.16-1.19.81-2.5,1.21-3.94,1.21-1.04,0-1.9-.16-2.57-.49Z"/><path class="cls-1" d="m162.67,100.97c-3.04-1.67-5.46-4.06-7.26-7.16-1.8-3.1-2.7-6.7-2.7-10.8s.9-7.75,2.7-10.83c1.8-3.08,4.22-5.44,7.26-7.1,3.04-1.66,6.36-2.48,9.96-2.48s6.92.83,9.96,2.48c3.04,1.66,5.46,4.02,7.26,7.1,1.8,3.08,2.7,6.69,2.7,10.83s-.9,7.7-2.7,10.8c-1.8,3.1-4.22,5.48-7.26,7.16s-6.36,2.51-9.96,2.51-6.92-.84-9.96-2.51Zm16.77-4.7c2.05-1.17,3.68-2.88,4.89-5.13,1.21-2.25,1.81-4.94,1.81-8.07s-.6-5.88-1.81-8.13c-1.21-2.25-2.83-3.95-4.86-5.1-2.03-1.15-4.31-1.73-6.83-1.73s-4.81.58-6.86,1.73c-2.05,1.15-3.67,2.85-4.86,5.1-1.19,2.25-1.78,4.96-1.78,8.13s.61,5.82,1.84,8.07c1.22,2.25,2.87,3.96,4.94,5.13,2.07,1.17,4.31,1.75,6.72,1.75s4.75-.58,6.8-1.75Z"/><path class="cls-1" d="m.05,118.74h9.56c7.99,0,13.58,1.89,16.77,5.67,3.19,3.78,4.78,8.28,4.78,13.5,0,3.64-.68,6.99-2.05,10.07s-3.63,5.59-6.78,7.53c-3.15,1.94-7.28,2.92-12.39,2.92H.05v-39.69Zm10.53,34.34c4.97,0,8.58-1.41,10.83-4.24,2.25-2.83,3.38-6.38,3.38-10.67s-1.13-7.58-3.4-10.21-5.87-3.94-10.8-3.94h-4.48v29.05h4.48Z"/><path class="cls-1" d="m37.15,118.74h17.39v5.29h-11.39v10.96h9.18v5.4h-9.18v12.69h13.18v5.35h-19.17v-39.69Z"/><path class="cls-1" d="m62.42,126.32l6.1,1.64v25.07h11.39v5.4h-17.5v-32.11Z"/><path class="cls-1" d="m103.7,139.63c.11,2.34.62,4.49,1.52,6.44,1.03,2.23,2.53,4,4.51,5.29,1.98,1.3,4.34,1.94,7.07,1.94,3.17,0,6.23-.9,9.18-2.7l1.78,5.13c-.79.72-2.24,1.41-4.35,2.08-2.11.67-4.24,1-6.4,1-4.1,0-7.66-.92-10.67-2.75s-5.3-4.29-6.88-7.37c-1.46-2.84-2.25-5.94-2.36-9.31l6.6.25Zm22.76-19.51c.83.42,1.39.77,1.68,1.06l-2.65,5.4c-.94-.84-2.01-1.49-3.2-1.97l4.17-4.49Z"/><path class="cls-1" d="m139.49,158.43h-5.52v-39.69h5.27l2.62,5.29h-1.89v10.96h9.18v5.4h-9.18v12.69h.71l-1.18,5.35Zm4.18-5.35h9.47v5.35h-9.11l-.36-5.35Zm7.69-34.34v5.29"/><path class="cls-1" d="m179.06,158.43l-7.99-15.01c-1.66.07-3.13.11-4.43.11h-1.51v14.9h-5.89v-39.69h9.02c4.57,0,8.33.95,11.29,2.83,2.95,1.89,4.43,4.96,4.43,9.21,0,2.67-.62,4.96-1.86,6.88-1.24,1.93-3.09,3.41-5.54,4.46l9.45,16.31h-6.97Zm-10.1-19.82c3.53,0,5.95-.76,7.26-2.29,1.31-1.53,1.97-3.36,1.97-5.48,0-4.71-3.15-7.07-9.45-7.07h-3.62v14.85h3.83Z"/><path class="cls-1" d="m212,158.43l-7.99-15.01c-1.66.07-3.13.11-4.43.11h-1.51v14.9h-5.89v-39.69h9.02c4.57,0,8.33.95,11.29,2.83,2.95,1.89,4.43,4.96,4.43,9.21,0,2.67-.62,4.96-1.86,6.88-1.24,1.93-3.09,3.41-5.54,4.46l9.45,16.31h-6.97Zm-10.1-19.82c3.53,0,5.95-.76,7.26-2.29,1.31-1.53,1.97-3.36,1.97-5.48,0-4.71-3.15-7.07-9.45-7.07h-3.62v14.85h3.83Z"/><path class="cls-1" d="m233.41,156.46c-3.04-1.67-5.46-4.06-7.26-7.15-1.8-3.1-2.7-6.7-2.7-10.8s.9-7.75,2.7-10.83c1.8-3.08,4.22-5.45,7.26-7.1,3.04-1.66,6.36-2.48,9.96-2.48s6.92.83,9.96,2.48c3.04,1.66,5.46,4.02,7.26,7.1,1.8,3.08,2.7,6.69,2.7,10.83s-.9,7.7-2.7,10.8c-1.8,3.1-4.22,5.48-7.26,7.15-3.04,1.67-6.36,2.51-9.96,2.51s-6.92-.84-9.96-2.51Zm16.77-4.7c2.05-1.17,3.68-2.88,4.89-5.13,1.21-2.25,1.81-4.94,1.81-8.07s-.6-5.88-1.81-8.13c-1.21-2.25-2.83-3.95-4.86-5.1-2.03-1.15-4.31-1.73-6.83-1.73s-4.81.58-6.86,1.73c-2.05,1.15-3.67,2.85-4.86,5.1-1.19,2.25-1.78,4.96-1.78,8.13s.61,5.82,1.84,8.07,2.87,3.96,4.94,5.13c2.07,1.17,4.31,1.75,6.72,1.75s4.75-.58,6.8-1.75Z"/><path class="cls-1" d="m0,176.81h17.39v5.29H5.99v10.96h9.18v5.4H5.99v12.69h13.18v5.35H0v-39.69Z"/><path class="cls-1" d="m25.27,176.81h6.1v34.29h11.39v5.4h-17.5v-39.69Z"/><path class="cls-1" d="m61.83,176.81h8.75c4.93,0,8.54,1.05,10.83,3.16,2.29,2.11,3.43,5,3.43,8.67,0,4.25-1.24,7.51-3.73,9.77-2.48,2.27-6.17,3.4-11.07,3.4h-2.11v14.69h-6.1v-39.69Zm8.37,19.66c3.17,0,5.38-.7,6.64-2.11,1.26-1.4,1.89-3.1,1.89-5.08,0-2.12-.61-3.85-1.84-5.18-1.22-1.33-3.28-2-6.16-2h-2.81v14.36h2.27Z"/><path class="cls-1" d="m90.45,176.81h6.1v34.29h11.39v5.4h-17.5v-39.69Z"/><path class="cls-1" d="m134.66,211.35c1.48-.27,2.87-.78,4.17-1.52,2.05-1.17,3.68-2.88,4.89-5.13,1.21-2.25,1.81-4.94,1.81-8.07s-.6-5.88-1.81-8.13c-1.21-2.25-2.83-3.95-4.86-5.1-2.03-1.15-4.31-1.73-6.83-1.73s-4.81.58-6.86,1.73c-2.05,1.15-3.67,2.85-4.86,5.1-1.19,2.25-1.78,4.96-1.78,8.13s.61,5.82,1.84,8.07,2.87,3.96,4.94,5.13c.14.08.29.16.43.23l.04,5.74c-.48.09-1.02-.04-1.09-.07-.9-.34-1.77-.74-2.63-1.21-3.04-1.67-5.46-4.06-7.26-7.16-1.8-3.1-2.7-6.7-2.7-10.8s.9-7.75,2.7-10.83c1.8-3.08,4.22-5.44,7.26-7.1,3.04-1.66,6.36-2.48,9.96-2.48s6.92.83,9.96,2.48c1.72.94,3.25,2.1,4.57,3.5,1.01,1.07.27,3.55,1.05,4.89,1.33,2.28,3.81,3.56,4.16,6.43.12,1,.18,2.04.18,3.12,0,4.1-.9,7.7-2.7,10.8-1.8,3.1-4.22,5.48-7.26,7.16-1.63.9-3.22,1.53-5.02,1.94"/><path class="cls-1" d="m157.72,206.36l6.11-29.55h.65l10.91,21.44,3.24,7.18,3.24-7.18,10.69-21.44h.59l8.53,39.69h-5.94l-4-18.52-1.19-5.62-2.16,5.62-9.61,18.52h-.32l-9.56-18.52-2.48-5.62-1.13,5.62-3,15.12-4.57-6.74Z"/><path class="cls-1" d="m215.32,214.53c-3.04-1.67-5.46-4.06-7.26-7.16-1.8-3.1-2.7-6.7-2.7-10.8s.9-7.75,2.7-10.83c1.8-3.08,4.22-5.44,7.26-7.1,3.04-1.66,6.36-2.48,9.96-2.48s6.92.83,9.96,2.48,5.46,4.02,7.26,7.1c1.8,3.08,2.7,6.69,2.7,10.83s-.9,7.7-2.7,10.8c-1.8,3.1-4.22,5.48-7.26,7.16s-6.36,2.51-9.96,2.51-6.92-.84-9.96-2.51Zm16.77-4.7c2.05-1.17,3.68-2.88,4.89-5.13,1.21-2.25,1.81-4.94,1.81-8.07s-.6-5.88-1.81-8.13c-1.21-2.25-2.83-3.95-4.86-5.1-2.03-1.15-4.31-1.73-6.83-1.73s-4.81.58-6.86,1.73c-2.05,1.15-3.67,2.85-4.86,5.1-1.19,2.25-1.78,4.96-1.78,8.13s.61,5.82,1.84,8.07,2.87,3.96,4.94,5.13c2.07,1.17,4.31,1.75,6.72,1.75s4.75-.58,6.8-1.75Z"/><polygon class="cls-1" points="91.33 100.41 90.49 102.95 91.89 102.95 91.89 100.81 91.33 100.41"/><polygon class="cls-1" points="143.35 134.03 143.35 137.89 144.29 137.36 145.35 135.18 145.64 134.03 143.35 134.03"/><path class="cls-1" d="m155.18,226.36c-1.19,0-2.46-.09-3.81-.27-3-.41-6.83-1.17-9.78-3.49-3.14-2.47-4.74-6.16-6.29-9.73-.3-.69-.6-1.39-.91-2.07-1.65-3.63-6.04-8.37-8.15-10.64l-.48-.52,1.47-1.35.48.52c2.18,2.35,6.71,7.25,8.5,11.17.32.69.62,1.4.93,2.1,1.45,3.34,2.94,6.79,5.69,8.95,2.58,2.03,6.06,2.71,8.82,3.08,4.06.55,9.45.47,12.14-2.98.46-.6.74-1.17.82-1.72.19-1.25-.58-2.56-1.45-3.9l-6.85-10.58c-1.66-2.57-3.38-5.22-4.7-8.07-.65-1.4-1.29-2.68-1.91-3.92-1.54-3.08-2.99-5.99-4.09-9.81-.41-1.41-.67-2.76-.96-4.2-.16-.82-.33-1.66-.53-2.56-.78-3.48-1.14-5.66-1.07-8.61.17-6.62.15-7.84.13-10.05-.01-.97-.02-2.13-.02-4.02,0-2.8-.2-11.21-.69-14.46l1.98-.29c.5,3.35.71,11.91.71,14.75,0,1.88.01,3.03.02,4,.02,2.24.04,3.47-.13,10.13-.07,2.75.26,4.73,1.02,8.12.21.92.38,1.78.54,2.61.27,1.39.53,2.71.92,4.03,1.05,3.65,2.4,6.34,3.96,9.47.62,1.25,1.27,2.55,1.93,3.97,1.26,2.72,2.94,5.32,4.57,7.83l6.85,10.58c.82,1.27,2.06,3.18,1.75,5.28-.13.89-.54,1.78-1.22,2.65-2.06,2.65-5.54,4.01-10.18,4.01Z"/><path class="cls-1" d="m87.7,105.85c-.67,0-1.33-.2-1.89-.67-.92-.75-1.16-1.84-1.38-2.8-.05-.2-.09-.4-.14-.59-.12-.47-.39-.9-.64-1.1-.57.8-1.41,1.35-2.46,1.61-1.93.49-4.45-.09-6.25-1.44-3.67-2.74-8.39-13.56-9.49-17.58l1.93-.53c1.14,4.18,5.72,14.24,8.75,16.51,1.33.99,3.21,1.44,4.57,1.1.73-.18,1.25-.58,1.53-1.19l.21-.45.49-.1c1.61-.34,2.87,1.08,3.29,2.65.06.22.11.44.16.67.16.71.31,1.38.7,1.69.52.43,1.52.11,2.03-.45.7-.77.99-1.97,1.24-3.02l.34-1.45,1.21.86c1.05.75,2.14,1.53,3.33,1.81.92.21,2.17.07,2.76-.75.37-.51.54-1.31.71-2.08.31-1.4.7-3.15,2.48-3.63.89-.24,1.69,0,2.39.22.33.1.64.19.92.22,1.48.16,2.67-1.28,3.94-2.8.29-.35.57-.69.86-1.01,3-3.37,7.34-4.8,11.53-6.19l.98-.32c4.45-1.49,9.57-3.47,13.77-6.9,4.11-3.36,7.44-9.42,7.75-14.1l2,.13c-.34,5.26-3.91,11.78-8.48,15.52-4.45,3.64-9.78,5.7-14.41,7.25l-.98.32c-3.94,1.3-8.02,2.65-10.67,5.62-.27.3-.54.63-.81.96-1.47,1.78-3.13,3.8-5.69,3.52-.46-.05-.9-.18-1.28-.3-.51-.16-.96-.29-1.29-.2-.55.15-.76.8-1.05,2.13-.21.93-.44,1.98-1.05,2.82-1.13,1.57-3.25,1.9-4.84,1.53-1.06-.25-2-.75-2.85-1.31-.27.87-.66,1.77-1.34,2.51-.71.78-1.81,1.3-2.89,1.3Z"/><path class="cls-1" d="m65.51,89.52c-1.16-8.03-.23-12.68,1.32-20.38l.17-.83c.34-1.68.86-3.43,1.56-5.2.85-2.14,2.17-4.27,3.93-6.32,2.92-3.41,6.62-7.14,11.97-9.04,4.83-1.71,10.63-1.1,17.72,1.87,3.74,1.56,7.37,3.47,10.88,5.32,3.1,1.63,6.3,3.32,9.55,4.74,8.24,3.62,15.28,4.75,21.51,3.46l.35-.07.31.16c2.16,1.11,4.78-.27,6.14-2.14,1.35-1.85,1.85-4.55,1.41-7.59-.28-1.94-.87-3.81-1.49-5.78-.26-.82-.52-1.65-.75-2.48-.46-1.62-.83-3.27-1.2-4.87-.4-1.77-.82-3.61-1.34-5.36-.97-3.23-2.38-6.39-3.74-9.44-2.56-5.74-5.45-12.26-10.43-16.67-4.58-4.07-11.23-6.5-18.72-6.86-7.12-.34-14.33,1.11-20.52,2.49-2.93.65-5.54,1.3-7.9,2.54-2.04,1.07-3.88,2.61-5.66,4.09l-14.09,11.76c-2.69,2.25-5.47,4.57-8.53,6.47-6.17,3.84-13.84,6.23-23.43,7.31l-.17.02c-1.46.16-2.84.32-3.94.99-.93.57-1.68,1.78-1.29,2.75.33.83,1.4,1.43,2.43,2.02,1.5.86,3.37,1.92,3.11,4.08-.2,1.61-1.61,2.57-2.55,3.21-5.23,3.55-11.63,9.99-12.83,13.91l-1.91-.58c1.52-4.99,8.88-11.77,13.62-14.98.85-.57,1.61-1.14,1.69-1.8.09-.76-.61-1.24-2.11-2.1-1.27-.72-2.7-1.54-3.29-3.01-.82-2.04.47-4.21,2.1-5.2,1.48-.9,3.22-1.1,4.76-1.27l.17-.02c9.29-1.05,16.69-3.34,22.6-7.02,2.94-1.83,5.67-4.11,8.3-6.31l14.09-11.76c1.86-1.55,3.78-3.15,6.01-4.33,2.58-1.36,5.33-2.04,8.4-2.72,6.32-1.41,13.68-2.88,21.05-2.54,7.95.38,15.04,2.99,19.95,7.36,5.3,4.7,8.29,11.43,10.93,17.36,1.38,3.11,2.82,6.33,3.82,9.68.55,1.82.97,3.69,1.38,5.5.36,1.57.73,3.2,1.17,4.76.23.81.48,1.62.74,2.42.62,1.96,1.25,3.98,1.56,6.09.52,3.56-.11,6.78-1.77,9.06-1.83,2.51-5.24,4.26-8.34,2.9-6.57,1.27-13.89.08-22.39-3.65-3.31-1.45-6.54-3.16-9.67-4.81-3.47-1.83-7.06-3.72-10.72-5.25-6.61-2.76-11.94-3.36-16.28-1.83-4.91,1.74-8.38,5.25-11.12,8.45-1.62,1.89-2.82,3.82-3.59,5.76-.66,1.66-1.15,3.29-1.46,4.85l-.17.83c-1.51,7.49-2.41,12.02-1.3,19.7l-1.98.29Z"/><path class="cls-1" d="m101.4,141.34c-3.19,0-6.21-1.26-8.88-2.37-4.8-2-7.92-3.31-10.39-4.34-5.56-2.33-7.86-3.3-18.81-7.67l-1.11-.48.8-1.83,1.08.47c10.94,4.37,13.24,5.34,18.81,7.68,2.47,1.04,5.59,2.35,10.39,4.34,2.62,1.09,5.32,2.21,8.12,2.21h.06c5.36-.03,9.85-4.16,14-8.38l24.82-25.29,1.43,1.4-24.82,25.29c-4.44,4.53-9.29,8.95-15.42,8.98h-.07Z"/><path class="cls-1" d="m143.2,141.93l-1.81-.84c.75-1.6,1.84-3.84,2.93-6.08,1.08-2.23,2.17-4.45,2.91-6.04,1.63-3.49,3.31-7.1,4.34-10.85,1.82-6.66,3.7-16.23-1-22.36-2.31-3.02-4.7-6.14-7.86-8.25-2.63-1.75-6.7-3.09-10.23-1.59-1.8.76-3.33,2.21-4.81,3.61l-.09.09c-7.71,7.28-15.91,14.22-24.37,20.61-2.29,1.73-4.39,3.22-6.95,3.91-4.22,1.14-8.39-.19-13-1.91-.34-.13-.69-.25-1.03-.37-2.26-.81-4.6-1.64-6.49-3.87-.92-1.09-1.61-2.17-2.27-3.22-.33-.53-.67-1.05-1.03-1.58-1.39-2.02-3.64-6.11-4.61-8.43-2.79-6.61-3.58-8.31-6.83-11.86-10.37-11.33-12.84-14.03-28.84-17.79-5.49-1.29-10.22-1.05-13.74-.69-.92.09-1.82.17-2.68.23-5.57.45-9.25.74-11.12,5.75l-1.87-.7c2.32-6.2,7.19-6.59,12.84-7.04.85-.07,1.73-.14,2.64-.23,3.67-.37,8.62-.62,14.4.73,16.61,3.9,19.42,6.97,29.86,18.39,3.47,3.79,4.35,5.71,7.2,12.43.94,2.22,3.09,6.14,4.42,8.07.38.55.73,1.09,1.07,1.64.66,1.04,1.28,2.02,2.11,3,1.54,1.82,3.53,2.53,5.63,3.28.35.12.7.25,1.06.38,4.28,1.6,8.13,2.84,11.78,1.85,2.21-.6,4.14-1.97,6.26-3.57,8.4-6.35,16.54-13.24,24.2-20.47l.09-.09c1.61-1.52,3.27-3.09,5.4-4,3.62-1.54,8.15-.88,12.12,1.76,3.44,2.29,6.04,5.69,8.34,8.69,5.23,6.84,3.27,17.03,1.34,24.1-1.07,3.91-2.79,7.6-4.45,11.17-.74,1.6-1.83,3.83-2.92,6.07-1.09,2.23-2.17,4.46-2.92,6.05Z"/><path class="cls-1" d="m123.77,215c-.62-9.62,2.4-17.32,5.59-25.47,1.65-4.2,3.35-8.55,4.66-13.4.51-1.87,1.19-4.1,1.94-6.29,2.61-7.65,3.16-12.74,3.69-17.67.29-2.69.59-5.48,1.22-8.62,1.67-8.26,2.85-16.19-.91-22.55-.79-1.33-2.13-3.07-4.05-3.75-.92-.33-3.27-.87-5.29,1.19l-1.43-1.4c1.96-2,4.73-2.63,7.39-1.67,1.96.7,3.73,2.3,5.1,4.62,4.12,6.96,2.9,15.31,1.15,23.96-.61,3.05-.9,5.67-1.2,8.44-.54,5.03-1.1,10.24-3.78,18.1-.73,2.15-1.41,4.34-1.9,6.17-1.34,4.96-3.07,9.36-4.73,13.61-3.11,7.93-6.05,15.43-5.46,24.61l-2,.13Z"/><path class="cls-1" d="m2.16,230.81h3.35v2.79c.33-.95.87-1.71,1.61-2.29.74-.58,1.59-.87,2.54-.87.66,0,1.12.06,1.36.19l-.46,3.38c-.19-.12-.59-.19-1.21-.19-.97,0-1.85.31-2.65.93s-1.19,1.61-1.19,2.98v7.32h-3.35v-14.23Z"/><path class="cls-1" d="m17.88,244.34c-1.14-.67-1.97-1.57-2.51-2.7-.54-1.13-.81-2.36-.81-3.7,0-1.51.31-2.83.95-3.97.63-1.14,1.5-2.01,2.62-2.62,1.12-.61,2.38-.91,3.78-.91,2.19,0,3.82.6,4.88,1.81,1.06,1.21,1.6,2.91,1.6,5.1,0,.56-.03,1.14-.09,1.74h-10.23c.23,1.26.68,2.17,1.35,2.73.67.56,1.61.84,2.81.84.99,0,1.81-.08,2.45-.25s1.23-.39,1.77-.68l1.02,2.39c-.52.33-1.22.62-2.11.87-.89.25-1.96.37-3.22.37-1.69,0-3.11-.33-4.25-1.01Zm7.25-7.58c.02-1.28-.26-2.19-.84-2.71-.58-.53-1.41-.79-2.48-.79-2.17,0-3.42,1.17-3.75,3.5h7.07Z"/><path class="cls-1" d="m36.65,244.43c-1.08-.61-1.95-1.48-2.6-2.6-.65-1.13-.98-2.44-.98-3.95s.28-2.79.85-3.91c.57-1.12,1.38-1.98,2.43-2.6,1.05-.62,2.29-.93,3.72-.93.83,0,1.6.14,2.33.43.72.29,1.33.65,1.83,1.07.5.42.83.84.99,1.26l.06-2.39h3.19v14.23h-3.16l-.06-2.51c-.35.74-.99,1.4-1.92,1.97-.93.57-1.97.85-3.13.85-1.28,0-2.46-.3-3.55-.91Zm7.08-3.1c.81-.82,1.21-1.89,1.21-3.21v-.22c0-.89-.19-1.68-.56-2.39-.37-.7-.88-1.25-1.52-1.64s-1.34-.59-2.11-.59c-1.32,0-2.35.43-3.07,1.29-.72.86-1.08,1.97-1.08,3.33s.36,2.51,1.07,3.36c.71.86,1.74,1.29,3.08,1.29,1.18,0,2.17-.41,2.98-1.22Z"/><path class="cls-1" d="m55.26,222.25h3.32v22.79h-3.32v-22.79Z"/><path class="cls-1" d="m65.65,227.49c-.43-.43-.65-.97-.65-1.61,0-.58.22-1.07.65-1.49.43-.41.97-.62,1.61-.62s1.15.21,1.58.62c.43.41.65.91.65,1.49,0,.64-.21,1.18-.63,1.61-.42.43-.96.65-1.6.65s-1.18-.22-1.61-.65Zm-.09,3.32h3.47v14.23h-3.47v-14.23Z"/><path class="cls-1" d="m78.44,244.43c-1.08-.61-1.95-1.48-2.6-2.6-.65-1.13-.98-2.44-.98-3.95,0-2.25.63-4.06,1.89-5.41s2.97-2.03,5.12-2.03c1.2,0,2.29.29,3.29.88s1.66,1.3,2.01,2.12l-.16-2.42v-8.77h3.29v22.79h-3.19l-.06-2.51c-.35.74-.99,1.4-1.92,1.97-.93.57-1.97.85-3.13.85-1.28,0-2.46-.3-3.55-.91Zm7.08-3.13c.81-.82,1.21-1.89,1.21-3.21v-.22c0-.89-.19-1.68-.56-2.39-.37-.7-.88-1.25-1.52-1.64-.64-.39-1.34-.59-2.11-.59-1.32,0-2.35.43-3.07,1.29-.72.86-1.08,1.97-1.08,3.33s.36,2.51,1.07,3.36c.71.86,1.74,1.29,3.08,1.29,1.18,0,2.17-.41,2.98-1.22Z"/><path class="cls-1" d="m99.48,244.43c-1.08-.61-1.95-1.48-2.6-2.6-.65-1.13-.98-2.44-.98-3.95s.28-2.79.85-3.91c.57-1.12,1.38-1.98,2.43-2.6,1.05-.62,2.29-.93,3.72-.93.83,0,1.6.14,2.33.43.72.29,1.33.65,1.83,1.07.5.42.83.84.99,1.26l.06-2.39h3.19v14.23h-3.16l-.06-2.51c-.35.74-.99,1.4-1.92,1.97-.93.57-1.97.85-3.13.85-1.28,0-2.46-.3-3.55-.91Zm7.08-3.1c.81-.82,1.21-1.89,1.21-3.21v-.22c0-.89-.19-1.68-.56-2.39-.37-.7-.88-1.25-1.52-1.64s-1.34-.59-2.11-.59c-1.32,0-2.35.43-3.07,1.29-.72.86-1.08,1.97-1.08,3.33s.36,2.51,1.07,3.36c.71.86,1.74,1.29,3.08,1.29,1.18,0,2.17-.41,2.98-1.22Z"/><path class="cls-1" d="m120.56,244.43c-1.08-.61-1.95-1.48-2.6-2.6-.65-1.13-.98-2.44-.98-3.95,0-2.25.63-4.06,1.89-5.41s2.97-2.03,5.12-2.03c1.2,0,2.29.29,3.29.88s1.66,1.3,2.01,2.12l-.16-2.42v-8.77h3.29v22.79h-3.19l-.06-2.51c-.35.74-.99,1.4-1.92,1.97-.93.57-1.97.85-3.13.85-1.28,0-2.46-.3-3.55-.91Zm7.08-3.13c.81-.82,1.21-1.89,1.21-3.21v-.22c0-.89-.19-1.68-.56-2.39-.37-.7-.88-1.25-1.52-1.64-.64-.39-1.34-.59-2.11-.59-1.32,0-2.35.43-3.07,1.29-.72.86-1.08,1.97-1.08,3.33s.36,2.51,1.07,3.36c.71.86,1.74,1.29,3.08,1.29,1.18,0,2.17-.41,2.98-1.22Z"/><path class="cls-1" d="m146.22,230.81h3.81l3.07,6.42.99,2.57.99-2.57,3.04-6.42h3.72l-7.47,14.23h-.65l-7.5-14.23Z"/><path class="cls-1" d="m166.34,227.49c-.43-.43-.65-.97-.65-1.61,0-.58.22-1.07.65-1.49.43-.41.97-.62,1.61-.62s1.15.21,1.58.62c.43.41.65.91.65,1.49,0,.64-.21,1.18-.63,1.61-.42.43-.96.65-1.6.65s-1.18-.22-1.61-.65Zm-.09,3.32h3.47v14.23h-3.47v-14.23Z"/><path class="cls-1" d="m176.29,230.81h3.35v2.79c.33-.95.87-1.71,1.61-2.29.74-.58,1.59-.87,2.54-.87.66,0,1.12.06,1.36.19l-.46,3.38c-.19-.12-.59-.19-1.21-.19-.97,0-1.85.31-2.65.93s-1.19,1.61-1.19,2.98v7.32h-3.35v-14.23Z"/><path class="cls-1" d="m190.76,233.54h-2.51v-2.73h2.51v-5.8l3.38-.74v6.54h3.29v2.73h-3.29v11.5h-3.38v-11.5Z"/><path class="cls-1" d="m203.05,243.61c-.73-1.16-1.1-2.77-1.1-4.84v-7.97h3.35v7.13c0,1.18.07,2.09.2,2.74s.4,1.13.81,1.44c.4.31,1.01.46,1.81.46.58,0,1.14-.17,1.67-.5.54-.33.98-.78,1.32-1.35.34-.57.51-1.19.51-1.88v-8.06h3.32v14.23h-2.73l-.37-2.08c-.52.81-1.16,1.41-1.94,1.8-.78.39-1.71.59-2.81.59-1.96,0-3.31-.58-4.04-1.74Z"/><path class="cls-1" d="m224.17,244.43c-1.08-.61-1.95-1.48-2.6-2.6-.65-1.13-.98-2.44-.98-3.95s.28-2.79.85-3.91c.57-1.12,1.38-1.98,2.43-2.6,1.05-.62,2.29-.93,3.72-.93.83,0,1.6.14,2.33.43.72.29,1.33.65,1.83,1.07.5.42.83.84.99,1.26l.06-2.39h3.19v14.23h-3.16l-.06-2.51c-.35.74-.99,1.4-1.92,1.97-.93.57-1.97.85-3.13.85-1.28,0-2.46-.3-3.55-.91Zm7.08-3.1c.81-.82,1.21-1.89,1.21-3.21v-.22c0-.89-.19-1.68-.56-2.39-.37-.7-.88-1.25-1.52-1.64s-1.34-.59-2.11-.59c-1.32,0-2.35.43-3.07,1.29-.72.86-1.08,1.97-1.08,3.33s.36,2.51,1.07,3.36c.71.86,1.74,1.29,3.08,1.29,1.18,0,2.17-.41,2.98-1.22Z"/><path class="cls-1" d="m242.78,222.25h3.32v22.79h-3.32v-22.79Z"/></g></svg>